<?xml version="1.0" encoding="UTF-8"?>
<svg xmlns="http://www.w3.org/2000/svg" viewBox="0 0 120 120" width="240" height="240" aria-label="Listen Buddy">
  <defs>
    <radialGradient id="hel" cx="40%" cy="32%" r="78%">
      <stop offset="0%" stop-color="#fdfdff"></stop>
      <stop offset="55%" stop-color="#e2dde9"></stop>
      <stop offset="100%" stop-color="#a39daf"></stop>
    </radialGradient>
    <radialGradient id="vis" cx="40%" cy="30%" r="80%">
      <stop offset="0%" stop-color="#251a36"></stop>
      <stop offset="100%" stop-color="#0c0717"></stop>
    </radialGradient>
    <linearGradient id="halo" x1="0%" y1="0%" x2="100%" y2="100%">
      <stop offset="0%" stop-color="hsl(265,90%,72%)"></stop>
      <stop offset="50%" stop-color="hsl(220,95%,68%)"></stop>
      <stop offset="100%" stop-color="hsl(295,80%,70%)"></stop>
    </linearGradient>
    <linearGradient id="cup" x1="0%" y1="0%" x2="0%" y2="100%">
      <stop offset="0%" stop-color="#3fd9d3"></stop>
      <stop offset="100%" stop-color="#16a8af"></stop>
    </linearGradient>
    <filter id="eg" x="-60%" y="-60%" width="220%" height="220%">
      <feGaussianBlur stdDeviation="1.6" result="b"></feGaussianBlur>
      <feMerge><feMergeNode in="b"></feMergeNode><feMergeNode in="b"></feMergeNode><feMergeNode in="SourceGraphic"></feMergeNode></feMerge>
    </filter>
    <filter id="sg" x="-60%" y="-60%" width="220%" height="220%">
      <feGaussianBlur stdDeviation="1.8" result="b"></feGaussianBlur>
      <feMerge><feMergeNode in="b"></feMergeNode><feMergeNode in="b"></feMergeNode><feMergeNode in="SourceGraphic"></feMergeNode></feMerge>
    </filter>
  </defs>
  
  <circle cx="60" cy="64" r="32" fill="#562e80"></circle>
  <path d="M 20 62 Q 20 20 60 20 Q 100 20 100 62" fill="none" stroke="#7e3fb5" stroke-width="10" stroke-linecap="round"></path>
  <path d="M 20 62 Q 20 20 60 20 Q 100 20 100 62" fill="none" stroke="#a36ed1" stroke-width="6" stroke-linecap="round"></path>
  <path d="M 23 60 Q 23 23 60 23" fill="none" stroke="hsl(285,75%,80%)" stroke-width="1.4" stroke-linecap="round" opacity="0.55"></path>
  <circle cx="60" cy="64" r="30" fill="url(#hel)"></circle>
  <rect x="17" y="55" width="13" height="22" rx="3.5" fill="#562e80"></rect>
  <rect x="18" y="56" width="11" height="20" rx="2.5" fill="url(#cup)"></rect>
  <rect x="90" y="55" width="13" height="22" rx="3.5" fill="#562e80"></rect>
  <rect x="91" y="56" width="11" height="20" rx="2.5" fill="url(#cup)"></rect>
  <rect x="38" y="44" width="44" height="36" rx="11" fill="url(#vis)"></rect>
  <g stroke="#e94be8" stroke-width="2.4" stroke-linecap="round" stroke-linejoin="round" fill="none" filter="url(#eg)">
        <path d="M 46 70 L 52 58 L 58 70"></path><path d="M 48.5 65.5 L 55.5 65.5"></path>
        <path d="M 62 70 L 68 58 L 74 70"></path><path d="M 64.5 65.5 L 71.5 65.5"></path>
      </g>
  <g filter="url(#sg)">
    <path d="M 47 74 Q 53 79 60 79.5" fill="none" stroke="#5ee9f3" stroke-width="3" stroke-linecap="round"></path>
    <path d="M 60 79.5 Q 67 79 73 74" fill="none" stroke="#5ee9f3" stroke-width="3" stroke-linecap="round"></path>
  </g>
</svg>