<svg viewBox="0 0 200 64" fill="none" xmlns="http://www.w3.org/2000/svg">
  <g transform="translate(8, 12)">
    <path d="M6 20 Q6 6 20 6 Q34 6 34 20" stroke="var(--primary-dim)" stroke-width="3.5" stroke-linecap="round" fill="none"></path>
    <rect x="0" y="16" width="9" height="14" rx="3" fill="var(--primary-dim)"></rect>
    <rect x="1.5" y="18" width="6" height="10" rx="2" fill="var(--secondary)"></rect>
    <rect x="31" y="16" width="9" height="14" rx="3" fill="var(--primary-dim)"></rect>
    <rect x="32.5" y="18" width="6" height="10" rx="2" fill="var(--secondary)"></rect>
    <circle cx="20" cy="22" r="12" fill="#e4e6ec"></circle>
    <rect x="11" y="14" width="18" height="14" rx="4" fill="#0a1018"></rect>
    <path d="M14 22 L16 18 L18 22" stroke="var(--secondary)" stroke-width="1.7" stroke-linecap="round" stroke-linejoin="round" fill="none"></path>
    <path d="M22 22 L24 18 L26 22" stroke="var(--secondary)" stroke-width="1.7" stroke-linecap="round" stroke-linejoin="round" fill="none"></path>
    <path d="M16 25 Q20 28 24 25" stroke="var(--primary)" stroke-width="1.4" stroke-linecap="round" fill="none"></path>
  </g>
  <text x="56" y="40" font-family="Outfit, sans-serif" font-weight="800" font-size="22" letter-spacing="1.5" fill="var(--foreground)">ZENPHONY</text>
</svg>